<svg width="182" height="182" viewBox="0 0 182 182" fill="none" xmlns="http://www.w3.org/2000/svg">
<g clip-path="url(#clip0_27_4340)">
<path d="M112.163 118.803C96.9116 130.461 75.0404 127.557 63.3834 112.305C51.7264 97.0521 54.6297 75.1876 69.8809 63.5295C73.274 60.9057 77.0255 59.0516 80.8996 57.8797C81.5817 57.6785 82.1501 57.1975 82.4736 56.5503C82.7972 55.9032 82.8409 55.1773 82.6311 54.4951L80.8996 49.4925C80.4186 48.1631 79.0019 47.4372 77.6289 47.8395C72.6268 49.37 67.8258 51.7926 63.4709 55.1423C43.5761 70.3512 39.7895 98.8712 54.997 118.768C70.2045 138.656 98.7305 142.452 118.625 127.243C122.333 124.418 125.481 121.112 128.026 117.482L118.783 112.156C116.929 114.579 114.708 116.835 112.163 118.812V118.803Z" fill="#08C3F4"/>
<path d="M136.378 91.446C136.378 90.7201 136.098 89.9942 135.573 89.5132C135.048 89.0322 134.322 88.7436 133.597 88.7873L128.271 89.1109C126.898 89.1896 125.805 90.3178 125.77 91.6909C125.647 98.9499 123.269 106.13 118.748 112.104L127.991 117.43C133.483 109.768 136.299 100.647 136.386 91.446H136.378Z" fill="#253D89"/>
<path d="M145.376 66.3194C144.528 66.4768 143.758 67.0015 143.321 67.7712C142.875 68.5408 142.84 69.4679 143.155 70.2725C145.332 75.7561 146.662 81.6508 147.029 87.8253L158.73 87.1431C158.327 80.164 156.876 73.4297 154.497 67.1327C154.016 65.8034 152.643 65.0337 151.27 65.2786L145.376 66.3281V66.3194Z" fill="#F89A1C"/>
<path d="M89.4872 147.122C58.5388 146.273 34.0442 120.412 34.8924 89.4695C35.7407 58.4831 61.5995 34.0386 92.5479 34.887C99.2466 35.0881 105.622 36.4175 111.516 38.7176C112.242 38.9975 113.09 38.9975 113.772 38.6739C114.498 38.3503 115.066 37.7468 115.302 37.0209L117.279 31.5373C117.803 30.0418 117.078 28.3888 115.582 27.8291C108.516 25.0042 100.891 23.395 92.8627 23.1501C55.4606 22.1443 24.1886 51.7139 23.1829 89.1109C22.1335 126.508 51.7527 157.774 89.1549 158.78C113.203 159.427 134.672 147.445 147.213 128.887L137.042 123.036C126.592 138 109.041 147.646 89.4697 147.122H89.4872Z" fill="#F89A1C"/>
<path d="M158.852 92.8628C158.896 90.93 158.852 89.0322 158.73 87.1343L147.029 87.8165C147.108 89.3908 147.151 90.9213 147.108 92.5392C146.784 103.874 143.111 114.369 137.06 123.036L147.23 128.922C154.252 118.593 158.485 106.209 158.852 92.8541V92.8628Z" fill="#253D89"/>
<path d="M75.1628 1.39933C64.4677 3.29716 54.5859 6.9704 45.6661 12.0867C44.3369 12.8563 43.7684 14.4655 44.3369 15.8824L46.6805 21.6896C47.0041 22.5379 47.6862 23.1851 48.5344 23.465C49.3827 23.7448 50.3097 23.6661 51.0792 23.1851C58.9497 18.5498 67.7821 15.2002 77.3053 13.5035C120.033 5.95588 160.951 34.5634 168.489 77.2866C169.057 80.3564 169.381 83.4174 169.538 86.4872L181.843 85.7612C181.641 82.2542 181.239 78.7034 180.636 75.1526C171.917 25.7739 124.589 -7.35521 75.1628 1.39933Z" fill="#253D89"/>
<path d="M181.851 85.7613L169.547 86.4872C170.553 103.953 165.673 120.701 156.474 134.537L167.169 140.711C177.54 124.855 183.023 105.693 181.86 85.7613H181.851Z" fill="#08C3F4"/>
<path d="M104.703 168.462C61.9755 176.009 21.0579 147.402 13.5197 104.678C11.9019 95.644 11.9456 86.6883 13.3973 78.0912C13.5197 77.2866 13.3186 76.4383 12.8289 75.7911C12.3479 75.1089 11.6221 74.6629 10.7738 74.5404L4.6436 73.6571C2.99081 73.4122 1.46044 74.5404 1.17186 76.2021C-0.402234 86.0849 -0.445959 96.4137 1.41672 106.821C10.1354 156.244 57.4631 189.32 106.89 180.609C132.635 176.053 153.937 161.045 167.212 140.746L156.517 134.572C144.974 151.836 126.741 164.587 104.712 168.462H104.703Z" fill="#253D89"/>
</g>
<defs>
<clipPath id="clip0_27_4340">
<rect width="182" height="182" fill="white"/>
</clipPath>
</defs>
</svg>
