<svg width="30" height="30" viewBox="0 0 30 30" fill="none" xmlns="http://www.w3.org/2000/svg">
<circle cx="15" cy="15" r="15" fill="#253D89"/>
<path d="M17.2413 21.4448L17.2495 21.4502C17.9578 21.8798 18.7988 22.0663 19.6335 21.979C20.4683 21.8917 21.2467 21.5358 21.8403 20.9701L22.3559 20.479C22.4702 20.3702 22.5609 20.2411 22.6227 20.099C22.6846 19.9568 22.7164 19.8045 22.7164 19.6506C22.7164 19.4967 22.6846 19.3444 22.6227 19.2023C22.5609 19.0601 22.4702 18.931 22.3559 18.8222L20.181 16.7524C20.0668 16.6436 19.9312 16.5573 19.782 16.4984C19.6328 16.4395 19.4728 16.4092 19.3112 16.4092C19.1497 16.4092 18.9897 16.4395 18.8405 16.4984C18.6912 16.5573 18.5556 16.6436 18.4414 16.7524C18.2108 16.972 17.8981 17.0953 17.572 17.0953C17.246 17.0953 16.9333 16.972 16.7027 16.7524L13.2251 13.4397C12.9946 13.2201 12.8651 12.9223 12.8651 12.6117C12.8651 12.3012 12.9946 12.0033 13.2251 11.7837C13.3394 11.675 13.43 11.5458 13.4919 11.4037C13.5537 11.2616 13.5855 11.1092 13.5855 10.9553C13.5855 10.8015 13.5537 10.6491 13.4919 10.507C13.43 10.3649 13.3394 10.2357 13.2251 10.127L11.051 8.05719C10.8204 7.83763 10.5077 7.71429 10.1816 7.71429C9.85556 7.71429 9.54284 7.83763 9.31223 8.05719L8.79577 8.54828C8.2019 9.11369 7.82835 9.85513 7.73683 10.6501C7.64531 11.4451 7.8413 12.246 8.29241 12.9205L8.29733 12.9283C10.6798 16.2854 13.7159 19.1764 17.2413 21.4448V21.4448Z" stroke="white" stroke-width="1.54545" stroke-linecap="round" stroke-linejoin="round"/>
</svg>
